<svg width="20" viewBox="0 0 20 0" fill="none" xmlns="http://www.w3.org/2000/svg">
<path d="M-0.707107 -0.707107C-1.09763 -0.316583 -1.09763 0.316582 -0.707108 0.707107L5.65685 7.07107C6.04738 7.46159 6.68054 7.46159 7.07107 7.07107C7.46159 6.68054 7.46159 6.04738 7.07107 5.65685L1.41421 1.23634e-07L7.07107 -5.65685C7.46159 -6.04738 7.46159 -6.68054 7.07107 -7.07107C6.68054 -7.46159 6.04738 -7.46159 5.65686 -7.07107L-0.707107 -0.707107ZM20 1.74846e-06L20 -0.999998L8.74228e-08 -1L0 0L-8.74228e-08 1L20 1L20 1.74846e-06Z" fill="white"/>
</svg>
